:version 1.10
:name ASF
:units
  mass 1
  length 1
  angle deg
:documentation
  ASF file generated by Kaydara
:root
  axis xyz
  order  tx ty tz rx ry rz
  position 0 0 0
  orientation 0 0 0
:bonedata
  begin
    id 1
    name RightUpLegDummy
    direction -0.65628 -0.754516 0.00165102
    length 4.76918
    axis 0 0 0 xyz
  end
  begin
    id 2
    name RightUpLeg
    direction -0.145584 -0.923362 0.355256
    length 17.9961
    axis -24.7611 -13.1006 1.78531 xyz
    dof rx ry rz
  end
  begin
    id 3
    name RightLeg
    direction 0.263379 0.172355 -0.949171
    length 13.3386
    axis 89.6202 -21.1929 12.3855 xyz
    dof rx ry rz
  end
  begin
    id 4
    name RightFoot
    direction 0.224283 -0.968777 -0.105675
    length 5.86697
    axis 56.995 -39.6905 17.3365 xyz
    dof rx ry rz
  end
  begin
    id 5
    name RightToes
    direction -0.0806345 -0.9037 0.420506
    length 4.75197
    axis 146.825 -39.7828 17.6019 xyz
    dof rx ry rz
  end
  begin
    id 6
    name SpineDummy
    direction -3.39852e-014 1 9.33296e-014
    length 8.13779
    axis 0 0 0 xyz
  end
  begin
    id 7
    name Spine
    direction -0.156609 0.733703 0.661176
    length 7.14978
    axis 41.2365 5.68757 17.0844 xyz
    dof rx ry rz
  end
  begin
    id 8
    name Spine1
    direction 0 0 0
    length 0
    axis 42.8809 47.8308 -3.36039 xyz
    dof rx ry rz
  end
  begin
    id 9
    name HEadDummy
    direction 0.546431 0.701947 0.456819
    length 3.55512
    axis 42.8809 47.8308 -3.36039 xyz
  end
  begin
    id 10
    name HEad
    direction 0.23444 0.828559 0.508457
    length 7.35827
    axis 51.1864 49.2662 27.4903 xyz
    dof rx ry rz
  end
  begin
    id 11
    name LeftShoulder1Dummy
    direction 0.431183 0.475873 -0.766568
    length 2.49352
    axis 42.8809 47.8308 -3.36039 xyz
  end
  begin
    id 12
    name LeftShoulder1
    direction 0.268187 -0.383402 -0.883786
    length 4.48604
    axis -119.517 0.106469 35.1736 xyz
    dof rx ry rz
  end
  begin
    id 13
    name LeftArm
    direction 0.380567 -0.703221 -0.600541
    length 10.1142
    axis -5.41825 36.2925 7.8293 xyz
    dof rx ry rz
  end
  begin
    id 14
    name LeftForeArm
    direction 0.541071 -0.732356 -0.413396
    length 9.39839
    axis 4.65387 33.7604 7.81644 xyz
    dof rx ry rz
  end
  begin
    id 15
    name LeftHand
    direction 0.847511 -0.389379 -0.360707
    length 3.66142
    axis 7.65593 21.1436 -24.6758 xyz
    dof rx ry rz
  end
  begin
    id 16
    name RightShoulderDummy
    direction -0.692546 0.541855 0.476208
    length 2.49352
    axis 42.8809 47.8308 -3.36039 xyz
  end
  begin
    id 17
    name RightShoulder
    direction -0.870808 -0.316653 0.376065
    length 4.48602
    axis 141.571 51.133 -100.254 xyz
    dof rx ry rz
  end
  begin
    id 18
    name RightArm
    direction 0.366897 -0.87275 0.322015
    length 10.1142
    axis 92.3258 71.2036 138.917 xyz
    dof rx ry rz
  end
  begin
    id 19
    name RightForeArm
    direction 0.702487 -0.694568 0.155197
    length 9.39835
    axis 153.863 41.5092 -176.604 xyz
    dof rx ry rz
  end
  begin
    id 20
    name RightHand
    direction 0.79502 -0.601276 0.0800636
    length 3.66142
    axis 154.247 4.59222 142.9 xyz
    dof rx ry rz
  end
  begin
    id 21
    name LeftUpLegDummy
    direction 0.65628 -0.754516 0.00165102
    length 4.76919
    axis 0 0 0 xyz
  end
  begin
    id 22
    name LeftUpLeg
    direction -0.1277 -0.689368 0.713067
    length 17.9961
    axis -48.3385 -17.8675 0.791927 xyz
    dof rx ry rz
  end
  begin
    id 23
    name LeftLeg
    direction 0.109849 -0.991246 -0.0732378
    length 13.3386
    axis -2.05791 -7.30784 1.72042 xyz
    dof rx ry rz
  end
  begin
    id 24
    name LeftFoot
    direction 0.0448355 -0.272614 0.961078
    length 5.86697
    axis -18.7733 -7.89606 10.2113 xyz
    dof rx ry rz
  end
  begin
    id 25
    name LeftToes
    direction -0.18506 0.293668 0.937823
    length 4.75197
    axis 71.2267 -7.89606 10.2113 xyz
    dof rx ry rz
  end
:hierarchy
  begin
    root RightUpLegDummy SpineDummy LeftUpLegDummy
    RightUpLegDummy RightUpLeg
    RightUpLeg RightLeg
    RightLeg RightFoot
    RightFoot RightToes
    SpineDummy Spine
    Spine Spine1
    Spine1 HEadDummy LeftShoulder1Dummy RightShoulderDummy
    HEadDummy HEad
    LeftShoulder1Dummy LeftShoulder1
    LeftShoulder1 LeftArm
    LeftArm LeftForeArm
    LeftForeArm LeftHand
    RightShoulderDummy RightShoulder
    RightShoulder RightArm
    RightArm RightForeArm
    RightForeArm RightHand
    LeftUpLegDummy LeftUpLeg
    LeftUpLeg LeftLeg
    LeftLeg LeftFoot
    LeftFoot LeftToes
  end

:SAMPLES-PER-SECOND 30
:FULLY-SPECIFIED
:DEGREES
233
root  -6.5705 37.764 -12.441 171.174 15.703 176.326
RightUpLeg  1.12321 24.8594 0.932318
RightLeg  -88.2239 -11.5034 -4.81752
RightFoot  22.6888 2.29152 -12.563
RightToes  -1.27222e-014 -6.36111e-015 6.36111e-015
Spine  -25.3656 -28.4822 -22.9636
Spine1  3.40993 -18.6885 68.9895
HEad  -3.89567 9.14868 -18.1565
LeftShoulder1  6.36111e-015 -1.33558e-015 6.49777e-015
LeftArm  12.7708 -21.7146 -28.467
LeftForeArm  -2.93745 -36.0552 1.85683
LeftHand  0.488822 3.39892 -7.21359
RightShoulder  -4.77083e-015 -6.36111e-015 -3.18055e-015
RightArm  66.12 -27.5037 -28.7354
RightForeArm  -28.2975 6.20259 -20.7946
RightHand  0.726135 1.09704 -7.54393
LeftUpLeg  61.0472 14.1035 19.2932
LeftLeg  -20.4021 -6.43939 -1.39713
LeftFoot  -8.2381 4.10956 -18.4338
LeftToes  9.54166e-015 4.2066e-011 -8.07781e-011
234
root  -6.0679 37.678 -13.2484 172.893 16.815 177.723
RightUpLeg  0.847056 26.0503 4.36316
RightLeg  -83.9398 -11.0094 -7.37287
RightFoot  21.6951 1.78319 -11.5848
RightToes  -1.27222e-014 -6.36111e-015 6.36111e-015
Spine  -24.6359 -27.3207 -21.7368
Spine1  3.74123 -18.4421 70.6549
HEad  -5.85925 10.8081 -20.344
LeftShoulder1  6.36111e-015 -1.33558e-015 6.49777e-015
LeftArm  12.8285 -11.0837 -28.0101
LeftForeArm  -5.05993 -32.5496 1.62099
LeftHand  0.570201 3.44776 -6.63738
RightShoulder  -4.77083e-015 -6.36111e-015 -3.18055e-015
RightArm  58.2312 -29.2704 -26.5486
RightForeArm  -30.6253 5.86635 -21.3532
RightHand  1.48803 -0.0941758 -11.0753
LeftUpLeg  58.052 11.6947 16.7776
LeftLeg  -14.4831 -1.78692 -1.87684
LeftFoot  -7.43381 5.22347 -22.6431
LeftToes  9.54166e-015 4.2066e-011 -8.07781e-011
235
root  -5.54123 37.635 -14.0663 174.343 15.7607 179.109
RightUpLeg  1.52285 25.6522 6.66056
RightLeg  -82.3112 -11.062 -7.02956
RightFoot  21.7239 0.892229 -10.2785
RightToes  -1.27222e-014 -6.36111e-015 6.36111e-015
Spine  -24.9938 -25.2502 -17.8829
Spine1  4.72575 -18.307 70.7903
HEad  -7.30332 10.7471 -21.0624
LeftShoulder1  6.36111e-015 -1.33558e-015 6.49777e-015
LeftArm  19.0279 -8.3971 -31.8857
LeftForeArm  -6.74471 -27.5279 0.809325
LeftHand  0.378793 2.92389 -6.83317
RightShoulder  -4.77083e-015 -6.36111e-015 -3.18055e-015
RightArm  50.6278 -31.7664 -21.8762
RightForeArm  -33.9959 7.47537 -23.9308
RightHand  1.96708 -0.804919 -13.0727
LeftUpLeg  52.5004 9.05255 14.951
LeftLeg  -3.69171 1.14793 -0.588714
LeftFoot  -2.07055 5.92591 -21.1812
LeftToes  9.54166e-015 4.2066e-011 -8.07781e-011
236
root  -4.99692 37.4473 -14.9498 175.013 14.3531 -179.488
RightUpLeg  2.63744 24.7289 8.7022
RightLeg  -80.5068 -11.6578 -4.87216
RightFoot  20.865 0.496678 -9.45522
RightToes  -1.27222e-014 -6.36111e-015 6.36111e-015
Spine  -26.3311 -21.6429 -12.2027
Spine1  6.71107 -17.6805 67.922
HEad  -8.79499 8.72192 -21.3545
LeftShoulder1  6.36111e-015 -1.33558e-015 6.49777e-015
LeftArm  27.9302 -9.50313 -38.9443
LeftForeArm  -6.3267 -26.0309 0.386767
LeftHand  0.0638356 2.16999 -7.53554
RightShoulder  -4.77083e-015 -6.36111e-015 -3.18055e-015
RightArm  43.2446 -32.5583 -15.3538
RightForeArm  -38.4775 10.9855 -29.2479
RightHand  1.79496 -0.575966 -12.3251
LeftUpLeg  45.9353 7.08205 14.3
LeftLeg  9.36877 3.95746 2.13239
LeftFoot  6.60634 4.60717 -12.8016
LeftToes  9.54166e-015 4.2066e-011 -8.07781e-011
237
root  -4.43327 37.2024 -15.9152 174.974 13.8792 -177.739
RightUpLeg  4.50302 23.7919 11.4803
RightLeg  -77.7836 -12.0872 -3.75385
RightFoot  18.3285 0.790201 -9.16648
RightToes  -1.27222e-014 -6.36111e-015 6.36111e-015
Spine  -27.6033 -17.223 -6.96754
Spine1  9.12044 -16.3545 63.3229
HEad  -10.3718 5.96488 -22.0455
LeftShoulder1  6.36111e-015 -1.33558e-015 6.49777e-015
LeftArm  34.7816 -8.33015 -45.4099
LeftForeArm  -3.481 -29.1104 0.381477
LeftHand  -0.158634 1.60782 -7.99917
RightShoulder  -4.77083e-015 -6.36111e-015 -3.18055e-015
RightArm  35.9878 -29.5577 -8.24066
RightForeArm  -43.4825 14.007 -35.4253
RightHand  1.44165 -0.215317 -10.4926
LeftUpLeg  40.7058 5.75523 15.2192
LeftLeg  20.7656 4.33357 4.65229
LeftFoot  11.2817 2.60409 -6.46842
LeftToes  9.54166e-015 4.2066e-011 -8.07781e-011
238
root  -3.84318 37.1924 -16.9932 174.477 13.1986 -176.452
RightUpLeg  7.7038 22.6819 13.9069
RightLeg  -76.5818 -12.2375 -3.45132
RightFoot  15.6746 1.3391 -9.25515
RightToes  -1.27222e-014 -6.36111e-015 6.36111e-015
Spine  -28.3051 -14.111 -4.38072
Spine1  10.3387 -14.9215 60.1853
HEad  -10.7988 3.38398 -22.4642
LeftShoulder1  6.36111e-015 -1.33558e-015 6.49777e-015
LeftArm  38.4606 -4.42198 -50.1601
LeftForeArm  -0.357873 -31.4089 -0.0488953
LeftHand  -0.259907 1.46429 -8.59643
RightShoulder  -4.77083e-015 -6.36111e-015 -3.18055e-015
RightArm  30.3029 -22.9199 -2.40314
RightForeArm  -46.433 15.1696 -38.8596
RightHand  1.48651 -0.681438 -9.923
LeftUpLeg  36.9569 5.17659 16.0937
LeftLeg  28.3635 1.89497 4.70013
LeftFoot  9.39833 2.07737 -5.40873
LeftToes  9.54166e-015 4.2066e-011 -8.07781e-011
239
root  -3.25983 37.4883 -18.2031 173.985 10.8307 -176.567
RightUpLeg  11.7322 21.4295 14.4845
RightLeg  -78.4548 -12.6455 -2.07567
RightFoot  14.1605 1.76531 -9.51337
RightToes  -1.27222e-014 -6.36111e-015 6.36111e-015
Spine  -29.0574 -12.6605 -4.15933
Spine1  9.3058 -13.5793 58.9933
HEad  -8.86247 0.0860748 -21.4754
LeftShoulder1  6.36111e-015 -1.33558e-015 6.49777e-015
LeftArm  41.5093 -0.58689 -55.0466
LeftForeArm  0.6513 -28.4961 -0.833006
LeftHand  -0.332244 1.60334 -9.80114
RightShoulder  -4.77083e-015 -6.36111e-015 -3.18055e-015
RightArm  27.3419 -15.9254 0.660395
RightForeArm  -45.1502 15.4741 -38.4764
RightHand  1.69932 -1.31676 -10.24
LeftUpLeg  33.0753 6.00887 15.1391
LeftLeg  30.9268 0.0446893 3.73445
LeftFoot  5.89693 2.33682 -6.63896
LeftToes  9.54166e-015 4.2066e-011 -8.07781e-011
240
root  -2.71937 37.9707 -19.518 174.147 7.50008 -177.803
RightUpLeg  15.5745 20.1518 13.3537
RightLeg  -82.7243 -12.9272 -0.0712254
RightFoot  13.8513 2.0116 -9.84243
RightToes  -1.27222e-014 -6.36111e-015 6.36111e-015
Spine  -30.3611 -11.2781 -4.29271
Spine1  6.75807 -12.0125 56.3208
HEad  -5.12141 -5.24587 -19.4114
LeftShoulder1  6.36111e-015 -1.33558e-015 6.49777e-015
LeftArm  43.0149 3.06354 -56.6055
LeftForeArm  2.37398 -24.9004 -3.59388
LeftHand  -0.472294 1.61061 -11.3007
RightShoulder  -4.77083e-015 -6.36111e-015 -3.18055e-015
RightArm  26.3894 -11.9987 0.744056
RightForeArm  -40.3856 15.401 -35.4018
RightHand  1.63387 -1.46987 -9.52037
LeftUpLeg  28.4735 8.56686 13.0756
LeftLeg  28.0142 0.354484 3.5412
LeftFoot  4.75392 2.43453 -7.12932
LeftToes  9.54166e-015 4.2066e-011 -8.07781e-011
241
root  -2.26281 38.4386 -20.8252 174.949 4.75484 -178.913
RightUpLeg  18.4474 18.1195 11.4962
RightLeg  -86.9618 -12.5252 0.0249418
RightFoot  14.1895 2.1958 -10.2565
RightToes  -1.27222e-014 -6.36111e-015 6.36111e-015
Spine  -32.0042 -8.55954 -3.11982
Spine1  4.66213 -10.2575 50.3362
HEad  -1.47705 -11.8521 -17.8981
LeftShoulder1  6.36111e-015 -1.33558e-015 6.49777e-015
LeftArm  41.9343 7.67299 -50.9204
LeftForeArm  7.36404 -25.8498 -8.33701
LeftHand  -0.743371 1.06092 -12.6096
RightShoulder  -4.77083e-015 -6.36111e-015 -3.18055e-015
RightArm  26.0931 -10.8292 -1.16495
RightForeArm  -34.5698 13.7719 -30.279
RightHand  1.42135 -1.47169 -8.06744
LeftUpLeg  24.5317 11.927 11.8533
LeftLeg  20.3308 0.581753 2.58609
LeftFoot  4.97714 2.38825 -6.95217
LeftToes  9.54166e-015 4.2066e-011 -8.07781e-011
242
root  -1.86749 38.7534 -22.0569 175.545 2.60156 -179.206
RightUpLeg  20.754 13.6587 9.1089
RightLeg  -89.8719 -12.307 -3.10799
RightFoot  14.7639 2.61245 -11.1243
RightToes  -1.27222e-014 -6.36111e-015 6.36111e-015
Spine  -33.2608 -5.22243 -1.21554
Spine1  4.02724 -8.6514 43.7837
HEad  0.729697 -17.7207 -17.7717
LeftShoulder1  6.36111e-015 -1.33558e-015 6.49777e-015
LeftArm  43.3356 10.5937 -45.931
LeftForeArm  7.84334 -25.5831 -8.79021
LeftHand  -1.09177 -0.00867871 -13.3785
RightShoulder  -4.77083e-015 -6.36111e-015 -3.18055e-015
RightArm  26.0958 -9.23867 -3.18249
RightForeArm  -29.3324 9.3993 -23.7533
RightHand  1.40775 -1.72598 -7.55571
LeftUpLeg  22.6997 14.7802 11.7401
LeftLeg  9.05756 -1.69157 0.392416
LeftFoot  5.2778 2.59962 -7.50529
LeftToes  9.54166e-015 4.2066e-011 -8.07781e-011
243
root  -1.45024 38.9491 -23.2181 175.347 0.395793 -179.263
RightUpLeg  24.5211 9.90071 7.52059
RightLeg  -93.8139 -12.1175 -4.7847
RightFoot  15.552 3.33592 -12.5416
RightToes  -1.27222e-014 -6.36111e-015 6.36111e-015
Spine  -33.7135 -3.18475 -0.431387
Spine1  4.52635 -7.51852 39.0603
HEad  1.33315 -22.2679 -18.4061
LeftShoulder1  6.36111e-015 -1.33558e-015 6.49777e-015
LeftArm  46.6482 11.2958 -43.8857
LeftForeArm  4.03125 -23.6381 -5.93339
LeftHand  -1.38796 -1.08905 -13.5635
RightShoulder  -4.77083e-015 -6.36111e-015 -3.18055e-015
RightArm  27.2736 -5.14336 -3.8404
RightForeArm  -24.9867 2.74608 -17.2118
RightHand  1.43243 -1.62148 -7.89373
LeftUpLeg  23.0287 16.7583 11.5913
LeftLeg  -4.98619 -5.8775 -1.08577
LeftFoot  6.32319 2.93552 -8.24001
LeftToes  9.54166e-015 4.2066e-011 -8.07781e-011
244
root  -1.02301 38.9638 -24.3323 174.629 -1.577 -179.106
RightUpLeg  29.4657 8.73776 8.14349
RightLeg  -98.6397 -11.6003 -2.79358
RightFoot  15.4871 4.10724 -13.821
RightToes  -1.27222e-014 -6.36111e-015 6.36111e-015
Spine  -33.5197 -1.89737 -0.228526
Spine1  5.58493 -6.51248 35.6101
HEad  1.14327 -26.0442 -19.0256
LeftShoulder1  6.36111e-015 -1.33558e-015 6.49777e-015
LeftArm  49.3643 10.7772 -42.4775
LeftForeArm  0.929885 -22.3416 -3.63098
LeftHand  -1.54491 -1.69579 -13.5407
RightShoulder  -4.77083e-015 -6.36111e-015 -3.18055e-015
RightArm  30.6285 0.82001 -2.55151
RightForeArm  -21.6544 -4.79829 -11.8534
RightHand  1.12066 -0.513513 -7.58856
LeftUpLeg  24.7594 18.1892 11.8335
LeftLeg  -20.2672 -10.5173 -0.53111
LeftFoot  8.08903 3.58511 -9.60351
LeftToes  9.54166e-015 4.2066e-011 -8.07781e-011
245
root  -0.667157 38.6772 -25.4699 173.946 -2.96848 -178.09
RightUpLeg  33.4351 7.99961 10.2361
RightLeg  -100.758 -10.8993 -0.2156
RightFoot  13.5704 4.75153 -14.5269
RightToes  -1.27222e-014 -6.36111e-015 6.36111e-015
Spine  -33.2023 0.0728812 0.966299
Spine1  6.6048 -5.37162 32.5118
HEad  1.10815 -29.0388 -19.5353
LeftShoulder1  6.36111e-015 -1.33558e-015 6.49777e-015
LeftArm  50.4083 9.45146 -40.8589
LeftForeArm  -0.157339 -21.8832 -2.91183
LeftHand  -1.55322 -1.69304 -13.6844
RightShoulder  -4.77083e-015 -6.36111e-015 -3.18055e-015
RightArm  36.2197 6.56107 0.946776
RightForeArm  -19.6754 -12.294 -7.92704
RightHand  0.543511 1.13444 -6.11865
LeftUpLeg  26.0298 15.9504 11.5685
LeftLeg  -31.5932 -11.3144 -1.50532
LeftFoot  10.2668 4.7104 -11.9223
LeftToes  9.54166e-015 4.2066e-011 -8.07781e-011
246
root  -0.383217 38.2256 -26.6158 173.535 -4.77721 -176.884
RightUpLeg  36.1698 6.89467 12.2361
RightLeg  -100.781 -10.1859 1.992
RightFoot  11.106 5.29157 -15.0016
RightToes  -1.27222e-014 -6.36111e-015 6.36111e-015
Spine  -32.7273 1.36711 2.19257
Spine1  7.38882 -4.76315 30.0096
HEad  1.17512 -31.0394 -19.7453
LeftShoulder1  6.36111e-015 -1.33558e-015 6.49777e-015
LeftArm  49.1597 7.49294 -39.3793
LeftForeArm  0.305633 -21.6717 -3.47927
LeftHand  -1.43559 -1.20638 -13.8162
RightShoulder  -4.77083e-015 -6.36111e-015 -3.18055e-015
RightArm  42.5956 9.73482 5.70439
RightForeArm  -18.8222 -18.6797 -5.32231
RightHand  0.0516948 2.37909 -4.23505
LeftUpLeg  24.6841 14.6537 11.3851
LeftLeg  -32.5277 -10.8157 -2.00227
LeftFoot  12.3186 5.18056 -12.4673
LeftToes  9.54166e-015 4.2066e-011 -8.07781e-011
